<?xml version="1.0" encoding="UTF-8" standalone="no"?>
<!-- Created with Inkscape (http://www.inkscape.org/) -->

<svg
   xmlns:dc="http://purl.org/dc/elements/1.1/"
   xmlns:cc="http://creativecommons.org/ns#"
   xmlns:rdf="http://www.w3.org/1999/02/22-rdf-syntax-ns#"
   xmlns:svg="http://www.w3.org/2000/svg"
   xmlns="http://www.w3.org/2000/svg"
   xmlns:sodipodi="http://sodipodi.sourceforge.net/DTD/sodipodi-0.dtd"
   xmlns:inkscape="http://www.inkscape.org/namespaces/inkscape"
   width="1080"
   height="1080"
   viewBox="0 0 285.74999 285.75001"
   version="1.1"
   id="svg8"
   inkscape:version="0.92.4 5da689c313, 2019-01-14"
   sodipodi:docname="AGraph.svg"
   inkscape:export-filename="AGraph.png"
   inkscape:export-xdpi="96"
   inkscape:export-ydpi="96">
  <defs
     id="defs2" />
  <sodipodi:namedview
     id="base"
     pagecolor="#222d32"
     bordercolor="#2fb59a"
     borderopacity="1"
     inkscape:pageopacity="0"
     inkscape:pageshadow="2"
     inkscape:zoom="0.24748737"
     inkscape:cx="917.98212"
     inkscape:cy="346.25341"
     inkscape:document-units="mm"
     inkscape:current-layer="g934"
     showgrid="false"
     inkscape:snap-bbox="true"
     inkscape:bbox-paths="true"
     inkscape:bbox-nodes="true"
     inkscape:snap-bbox-edge-midpoints="true"
     inkscape:snap-bbox-midpoints="true"
     inkscape:object-paths="true"
     inkscape:snap-intersection-paths="true"
     inkscape:snap-smooth-nodes="true"
     inkscape:snap-midpoints="true"
     inkscape:snap-object-midpoints="true"
     inkscape:snap-center="true"
     inkscape:snap-text-baseline="false"
     inkscape:snap-page="true"
     units="px"
     inkscape:showpageshadow="true"
     inkscape:window-width="1680"
     inkscape:window-height="1025"
     inkscape:window-x="1366"
     inkscape:window-y="0"
     inkscape:window-maximized="1"
     borderlayer="true"
     inkscape:snap-global="true" />
  <metadata
     id="metadata5">
    <rdf:RDF>
      <cc:Work
         rdf:about="">
        <dc:format>image/svg+xml</dc:format>
        <dc:type
           rdf:resource="http://purl.org/dc/dcmitype/StillImage" />
        <dc:title />
      </cc:Work>
    </rdf:RDF>
  </metadata>
  <g
     inkscape:label="Layer 1"
     inkscape:groupmode="layer"
     id="layer1"
     transform="translate(0,-11.249983)">
    <circle
       style="opacity:1;fill:#0088aa;fill-opacity:1;stroke:none;stroke-width:1.05833328;stroke-linecap:round;stroke-linejoin:round;stroke-miterlimit:4;stroke-dasharray:none;stroke-opacity:1"
       id="path936"
       cx="142.875"
       cy="154.12498"
       r="142.875" />
    <path
       style="opacity:1;fill:#006680;fill-opacity:1;stroke:none;stroke-width:3.99999976;stroke-linecap:round;stroke-linejoin:round;stroke-miterlimit:4;stroke-dasharray:none;stroke-opacity:1"
       d="M 154.85742 162.20312 A 540 540 0 0 0 0 540 A 540 540 0 0 0 154.31836 917.79688 L 925.14258 917.79688 A 540 540 0 0 0 1080 540 A 540 540 0 0 0 925.68164 162.20312 L 154.85742 162.20312 z "
       transform="matrix(0.26458333,0,0,0.26458333,0,11.249983)"
       id="rect938" />
  </g>
  <g
     inkscape:groupmode="layer"
     id="layer2"
     inkscape:label="Layer 2">
    <g
       id="g904"
       transform="translate(2.120898e-6,-7.217619)">
      <g
         id="g934"
         transform="matrix(1.247949,0,0,1.247949,-35.425713,4.8105663)"
         style="stroke-width:0.80131477">
        <path
           style="opacity:1;fill:#b7c8c4;fill-opacity:1;stroke:none;stroke-width:0.8480581;stroke-linecap:round;stroke-linejoin:round;stroke-miterlimit:4;stroke-dasharray:none;stroke-opacity:1"
           d="M 56.285196,178.9361 V 53.89722 H 229.4648 V 178.9361 H 218.35127 V 65.01075 H 67.39873 V 178.9361 Z"
           id="rect815"
           inkscape:connector-curvature="0" />
        <g
           style="fill:#ffffff;stroke-width:0.80131477"
           id="g897"
           transform="translate(1.7034569,-17.699528)">
          <circle
             r="16.252977"
             cy="116.41666"
             cx="94.305061"
             id="path860"
             style="opacity:1;fill:#ffffff;fill-opacity:1;stroke:none;stroke-width:0.8480581;stroke-linecap:round;stroke-linejoin:round;stroke-miterlimit:4;stroke-dasharray:none;stroke-opacity:1" />
          <circle
             r="16.252977"
             cy="116.41666"
             cx="188.03802"
             id="path860-5"
             style="opacity:1;fill:#ffffff;fill-opacity:1;stroke:none;stroke-width:0.8480581;stroke-linecap:round;stroke-linejoin:round;stroke-miterlimit:4;stroke-dasharray:none;stroke-opacity:1" />
          <path
             sodipodi:nodetypes="ccccc"
             inkscape:connector-curvature="0"
             id="rect815-3"
             d="m 97.711968,110.85989 h 90.326062 l -5.79653,11.11353 h -78.73299 z"
             style="opacity:1;fill:#ffffff;fill-opacity:1;stroke:none;stroke-width:0.8480581;stroke-linecap:round;stroke-linejoin:round;stroke-miterlimit:4;stroke-dasharray:none;stroke-opacity:1" />
        </g>
        <g
           transform="matrix(1.0825637,0,0,1.0825637,-11.796285,16.451278)"
           id="text908"
           style="font-style:normal;font-weight:normal;font-size:60.51439285px;line-height:1.25;font-family:sans-serif;letter-spacing:0px;word-spacing:0px;fill:#ffffff;fill-opacity:1;stroke:none;stroke-width:0.19584486"
           aria-label="GRAPH">
          <path
             inkscape:connector-curvature="0"
             id="path910"
             style="font-style:normal;font-variant:normal;font-weight:normal;font-stretch:normal;font-family:'Bebas Neue';-inkscape-font-specification:'Bebas Neue';fill:#ffffff;fill-opacity:1;stroke-width:0.19584486"
             d="m 94.493822,150.09262 c 6.535558,0 9.924358,-3.87292 9.924358,-10.65054 v -13.85779 h -9.621786 v 6.05144 h 3.328292 v 8.29047 c 0,3.02572 -1.331317,4.11498 -3.449321,4.11498 -2.118003,0 -3.44932,-1.08926 -3.44932,-4.11498 v -23.17701 c 0,-3.02572 1.331317,-4.1755 3.44932,-4.1755 2.118004,0 3.449321,1.14978 3.449321,4.1755 v 4.05446 h 6.293494 v -3.63086 c 0,-6.77762 -3.3888,-10.65054 -9.924358,-10.65054 -6.535554,0 -9.92436,3.87292 -9.92436,10.65054 v 22.26929 c 0,6.77762 3.388806,10.65054 9.92436,10.65054 z" />
          <path
             inkscape:connector-curvature="0"
             id="path912"
             style="font-style:normal;font-variant:normal;font-weight:normal;font-stretch:normal;font-family:'Bebas Neue';-inkscape-font-specification:'Bebas Neue';fill:#ffffff;fill-opacity:1;stroke-width:0.19584486"
             d="m 108.71463,149.48747 h 6.65659 v -18.15432 h 2.29954 c 3.02572,0 4.1755,1.27081 4.1755,5.20424 v 7.74584 c 0,3.44933 0.24205,4.11498 0.60514,5.20424 h 6.77761 c -0.66566,-1.57337 -0.72617,-3.08623 -0.72617,-5.14372 v -7.44327 c 0,-4.78064 -1.08926,-7.92739 -4.41755,-8.95613 v -0.12103 c 2.9652,-1.21029 4.35704,-3.99395 4.35704,-8.35099 v -2.60212 c 0,-6.53555 -2.96521,-9.74281 -9.86385,-9.74281 h -9.86385 z m 6.65659,-24.20575 v -12.10288 h 3.02572 c 2.36006,0 3.3888,1.33131 3.3888,4.35703 v 3.26778 c 0,3.38881 -1.51286,4.47807 -3.99395,4.47807 z" />
          <path
             inkscape:connector-curvature="0"
             id="path914"
             style="font-style:normal;font-variant:normal;font-weight:normal;font-stretch:normal;font-family:'Bebas Neue';-inkscape-font-specification:'Bebas Neue';fill:#ffffff;fill-opacity:1;stroke-width:0.19584486"
             d="m 131.34701,149.48747 h 6.17247 l 1.21028,-8.29047 h 7.5643 v -0.12103 l 1.21029,8.4115 h 6.65658 l -6.89864,-42.36007 h -9.01664 z m 8.16944,-14.03934 2.90469,-20.93798 h 0.12103 l 2.9652,20.93798 z" />
          <path
             inkscape:connector-curvature="0"
             id="path916"
             style="font-style:normal;font-variant:normal;font-weight:normal;font-stretch:normal;font-family:'Bebas Neue';-inkscape-font-specification:'Bebas Neue';fill:#ffffff;fill-opacity:1;stroke-width:0.19584486"
             d="m 157.36814,149.48747 h 6.65658 v -17.2466 h 3.14675 c 6.65658,0 9.92436,-3.69138 9.92436,-10.46899 v -4.17549 c 0,-6.77761 -3.26778,-10.46899 -9.92436,-10.46899 h -9.80333 z m 6.65658,-23.29804 v -13.01059 h 3.14675 c 2.118,0 3.26778,0.96823 3.26778,3.99395 v 5.02269 c 0,3.02572 -1.14978,3.99395 -3.26778,3.99395 z" />
          <path
             inkscape:connector-curvature="0"
             id="path918"
             style="font-style:normal;font-variant:normal;font-weight:normal;font-stretch:normal;font-family:'Bebas Neue';-inkscape-font-specification:'Bebas Neue';fill:#ffffff;fill-opacity:1;stroke-width:0.19584486"
             d="m 180.72667,149.48747 h 6.65659 v -19.06203 h 7.14069 v 19.06203 h 6.65659 V 107.1274 h -6.65659 v 17.2466 h -7.14069 v -17.2466 h -6.65659 z" />
        </g>
      </g>
    </g>
  </g>
</svg>
